<svg xmlns="http://www.w3.org/2000/svg" viewBox="0 0 64 64">
  <defs>
    <linearGradient id="g" x1="0%" y1="0%" x2="100%" y2="100%">
      <stop offset="0%" stop-color="#f472b6"/>
      <stop offset="100%" stop-color="#c084fc"/>
    </linearGradient>
    <filter id="glow" x="-20%" y="-20%" width="140%" height="140%">
      <feGaussianBlur stdDeviation="1" result="blur"/>
      <feComposite in="SourceGraphic" in2="blur" operator="over"/>
    </filter>
  </defs>
  <rect x="0" y="0" width="64" height="64" rx="16" fill="url(#g)"/>
  
  <!-- Maximized Hexagram (Star of David) -->
  <g stroke="white" stroke-width="2" fill="none" stroke-linejoin="round" opacity="0.8">
    <path d="M32 4 L58 49 L6 49 Z"/>
    <path d="M32 60 L6 15 L58 15 Z"/>
  </g>

  <!-- Aesthetic Futa Symbol (Stylized Venus + Mars) - Pale Purple -->
  <g stroke="#e0c3fc" stroke-width="2.5" fill="none" stroke-linecap="round" stroke-linejoin="round" filter="url(#glow)">
    <!-- Central Ring (Venus Body) -->
    <circle cx="32" cy="32" r="9"/>
    
    <!-- Venus Cross (Bottom) -->
    <path d="M32 41 L32 60"/>
    <path d="M28 46 L36 46"/>

    <!-- Mars Arrow (Top Right) -->
    <path d="M38.5 25.5 L44 20"/>
    <path d="M44 20 L44 25"/>
    <path d="M44 20 L39 20"/>

    <!-- Mars Arrow 2 / Trans Element (Top-Left) -->
    <path d="M25.5 25.5 L20 20"/>
    <path d="M20 20 L20 25"/>
    <path d="M20 20 L25 20"/>
    <path d="M21 26 L26 21"/>
  </g>

  <!-- Heart in Center (No H) -->
  <g transform="translate(32, 32)">
     <!-- Heart Symbol (Pink, Enlarged to 1.3) -->
     <path d="M 0 1.5 C -1.5 -1.5 -3.5 -0.5 -3.5 1.5 C -3.5 3.5 0 6 0 6 C 0 6 3.5 3.5 3.5 1.5 C 3.5 -0.5 1.5 -1.5 0 1.5 Z" fill="#ff69b4" stroke="none" transform="translate(0, -3) scale(1.3)"/>
  </g>
</svg>